<svg width="960" height="960" viewBox="0 0 254 254" xmlns="http://www.w3.org/2000/svg"><g transform="matrix(0.81935485,0,0,-0.81935485,0,262.19355)" fill="#000" stroke="none"><path d="M0 165V10h105 105v5 5H170 130V50 80H105 80V60 40H60 40v-5-5h25 25v20 20h15 15V45 20h-5-5v20 20h-5-5V40 20H55 10v15 15h5 5V40 30h5 5v10 10h20 20v20 20h35 35V80 70h10 10V60 50h20 20v-5-5h-25-25v10 10h-5-5V45 30h35 35v40 40h20 20v10 10h15 15V105 80h-5-5v20 20h-5-5v-10-10h-20-20v-5-5h20 20V80 70h15 15v35 35h-20-20v15 15h10 10v5 5h-15-15v-30-30h-25-25v15 15h10 10v5 5h-15-15v-25-25h10 10V85 60h-15-15v10 10h-10-10v10 10h-10-10v15 15h10 10v5 5h-25-25v-5-5h10 10V115 1e2H80 40V95 90H50 60V75 60H35 10v45 45h20 20v20 20h5 5V165 140H40 20V105 70h15 15v5 5H40 30v15 15h40 40v5 5H1e2 90v15 15h35 35v-15-15h-10-10v-5-5h10 10V1e2 90h10 10V80 70h5 5v15 15h-10-10v35 35h25 25v-15-15h-10-10v-5-5h15 15v30 30h25 25v-15-15h-10-10v-5-5h15 15v25 25h-10-10v50 50h-25-25v-5-5h20 20v-25-25h-15-15v10 10h-5-5v-10-10h-10-10v-5-5h20 20v-10-10h5 5v10 10h5 5v-15-15h-30-30v-5-5h10 10v-5-5h-25-25v10 10h-5-5V180 160H125 90v20 20H85 80V160 120H55 30v5 5h20 20v35 35H60 50v45 45h25 25V275 260H90 80v-15-15h45 45v15 15h-25-25v-5-5h20 20v-5-5H125 90v5 5h10 10v20 20h20 20v5 5H95 40V280 260H30 20v-5-5H30 40V225 2e2H30 20v-15-15h5 5v10 10h5 5V175 160H25 10v35 35h5 5v-10-10h5 5v15 15H20 10v35 35h5 5v-20-20h5 5v20 20h60 60v5 5H75 0z"/><path d="m160 315v-5h20 20v-25-25h-5-5v10 10h-10-10v5 5h10 10v5 5h-15-15v-10-10h-20-20v-5-5h30 30v-25-25h-20-20v-20-20h-15-15v15 15h5 5v-10-10h5 5v15 15H1e2 70v25 25h10 10v5 5H75 60v-35-35h20 20v-20-20h25 25v20 20h15 15v-10-10h5 5v10 10h20 20v5 5h-20-20v15 15h10 10v10 10h15 15v-10-10h5 5v15 15h-20-20v15 15h45 45v-45-45h-5-5v40 40h-5-5v-45-45h10 10V135 60H275 250V70 80H235 220V55 30h5 5v20 20h5 5V60 50h20 20V40 30h5 5v10 10h5 5V35 20h-25-25v5 5h10 10v5 5H255 240V30 20h-10-10v-5-5h45 45v155 155h-75-75z"/></g><ellipse style="fill:#fff;stroke:#fff;stroke-width:.226126;stroke-opacity:1" cx="127.00001" cy="127" rx="95.136932" ry="95.13694"/><ellipse style="fill:#fff;stroke:#fff;stroke-width:.264583;stroke-opacity:1" cx="162.76715" cy="119.5097" rx="2.9399648" ry="10.958051"/><ellipse style="fill:#fff;stroke:#fff;stroke-width:.264583;stroke-opacity:1" cx="66.817383" cy="117.90609" rx=".53453904" ry="12.561667"/><text style="font-style:normal;font-weight:400;font-size:8.46667px;line-height:1.25;font-family:sans-serif;letter-spacing:0;word-spacing:0;fill:#000;fill-opacity:1;stroke:none;stroke-width:.264583" x="55.068588" y="178.82295"><tspan x="55.068588" y="178.82295" style="font-size:141.111px;stroke-width:.264583">漢</tspan></text><flowRoot style="font-style:normal;font-weight:400;font-size:32px;line-height:1.25;font-family:sans-serif;letter-spacing:0;word-spacing:0;fill:#000;fill-opacity:1;stroke:none" transform="translate(0,-37.708335)"><flowRegion><rect width="105.05586" height="96.974648" x="210.11172" y="246.62926"/></flowRegion><flowPara id="flowPara3748"/></flowRoot><flowRoot style="font-style:normal;font-weight:400;font-size:32px;line-height:1.25;font-family:sans-serif;letter-spacing:0;word-spacing:0;fill:#000;fill-opacity:1;stroke:none" transform="translate(0,-37.708335)"><flowRegion><rect width="137.38075" height="107.07617" x="408.10162" y="109.2485"/></flowRegion><flowPara/></flowRoot></svg>