<?xml version="1.0" standalone="no"?>
<!DOCTYPE svg PUBLIC "-//W3C//DTD SVG 20010904//EN"
 "http://www.w3.org/TR/2001/REC-SVG-20010904/DTD/svg10.dtd">
<svg version="1.0" xmlns="http://www.w3.org/2000/svg"
 width="980.000000pt" height="980.000000pt" viewBox="0 0 980.000000 980.000000"
 preserveAspectRatio="xMidYMid meet">
<metadata>
Created by potrace 1.11, written by Peter Selinger 2001-2013
</metadata>
<g transform="translate(0.000000,980.000000) scale(0.100000,-0.100000)"
fill="#000000" stroke="none">
<path d="M0 9020 l0 -780 208 2 207 3 3 193 2 192 190 0 190 0 0 -400 0 -400
615 0 615 0 0 210 0 210 -400 0 -400 0 0 400 0 400 -405 0 -405 0 0 165 0 165
565 0 565 0 0 -390 0 -390 405 0 405 0 -2 -557 -3 -558 -783 -3 -782 -2 2
-208 3 -207 598 -3 598 -2 22 23 c12 13 71 78 130 144 151 170 371 365 574
510 l63 45 0 619 0 619 -405 0 -405 0 0 180 0 180 1755 0 1755 0 0 -385 0
-385 215 0 215 0 0 385 0 385 1735 0 1735 0 0 -165 0 -165 -380 0 -380 0 0
-210 0 -210 380 0 380 0 0 -170 0 -170 -1175 0 -1175 0 0 -332 0 -333 86 -70
c48 -38 142 -125 210 -191 l124 -121 0 313 0 314 365 0 365 0 0 -195 0 -195
-180 0 -180 0 2 -207 3 -208 580 0 580 0 3 207 2 208 -192 2 -193 3 0 190 0
190 388 3 387 2 0 -595 0 -595 -754 0 -754 0 62 -108 c33 -60 83 -154 111
-210 l49 -102 643 0 643 0 0 -2110 0 -2110 -390 0 -390 0 0 -615 0 -615 210 0
210 0 2 402 3 403 178 3 177 2 0 -195 0 -195 210 0 210 0 0 4285 0 4285 -4900
0 -4900 0 0 -780z"/>
<path d="M3140 8525 c0 -289 2 -525 5 -525 3 0 45 20 93 44 48 23 140 65 205
91 l117 48 0 223 0 224 180 0 180 0 0 -169 0 -168 58 13 c56 14 334 64 353 64
5 0 9 135 9 340 l0 340 -600 0 -600 0 0 -525z"/>
<path d="M6270 8650 l0 -400 -207 -2 -208 -3 100 -34 c214 -73 472 -190 650
-296 42 -25 79 -45 81 -45 2 0 4 171 4 380 l0 380 760 0 760 0 0 210 0 210
-970 0 -970 0 0 -400z"/>
<path d="M4690 8710 l0 -310 118 0 c66 0 160 -3 210 -6 l92 -7 0 317 0 316
-210 0 -210 0 0 -310z"/>
<path d="M4580 6945 l0 -225 -430 0 -430 0 0 -165 0 -165 428 -2 427 -3 3
-192 2 -193 180 0 180 0 0 195 0 195 440 0 440 0 0 -195 0 -195 185 0 185 0 0
195 0 195 470 0 470 0 -2 163 -3 162 -467 3 -468 2 0 225 0 225 -185 0 -185 0
0 -225 0 -225 -440 0 -440 0 0 225 0 225 -180 0 -180 0 0 -225z"/>
<path d="M2683 6988 l-110 -143 127 -67 c262 -137 563 -338 712 -476 33 -31
63 -51 67 -46 5 5 57 76 116 157 125 172 126 144 -15 257 -164 130 -451 305
-677 412 -56 26 -104 48 -106 48 -2 0 -53 -64 -114 -142z"/>
<path d="M0 3545 l0 -3545 4500 0 4500 0 -2 208 -3 207 -772 3 -773 2 0 405 0
405 -377 2 -378 3 -3 248 c-1 136 -4 247 -6 247 -3 0 -39 -20 -81 -45 -43 -25
-135 -75 -206 -111 l-129 -64 0 -140 0 -140 -507 0 c-280 -1 -542 -5 -583 -10
-41 -5 -164 -13 -272 -16 l-198 -7 0 -194 0 -193 1160 0 1160 0 0 -195 0 -195
-1735 0 -1735 0 0 499 0 498 -117 48 c-65 26 -157 68 -205 91 -48 24 -90 44
-93 44 -3 0 -5 -265 -5 -590 l0 -590 -1360 0 -1360 0 0 1360 0 1360 385 0 385
0 0 210 0 210 -385 0 -385 0 0 185 0 185 440 0 c242 0 440 3 440 8 0 4 -11 61
-24 127 -14 66 -30 157 -36 203 l-12 82 -404 0 -404 0 0 575 0 575 180 0 180
0 0 -395 0 -395 210 0 210 0 -2 603 -3 602 -387 3 -388 2 0 585 0 585 -210 0
-210 0 0 -3545z"/>
<path d="M770 6470 l0 -210 368 0 368 0 49 102 c28 56 78 150 111 210 l62 108
-479 0 -479 0 0 -210z"/>
<path d="M8256 5808 c19 -62 44 -157 55 -210 l22 -98 349 0 348 0 0 210 0 210
-404 0 -403 0 33 -112z"/>
<path d="M4020 5315 l0 -575 583 -2 582 -3 3 -177 2 -178 -655 0 -655 0 0
-155 0 -155 643 -2 642 -3 -3 -45 c-4 -60 -29 -177 -53 -256 l-20 -64 -714 0
-715 0 0 -160 0 -160 625 0 c722 0 655 15 528 -120 -233 -247 -568 -437 -1033
-584 -80 -25 -160 -49 -178 -52 -18 -4 -35 -10 -37 -14 -3 -4 22 -40 55 -80
34 -39 86 -107 116 -150 l55 -79 52 16 c29 8 108 36 177 60 502 182 864 405
1124 693 56 62 125 157 213 296 12 19 13 19 28 -1 9 -11 42 -60 73 -110 240
-373 621 -658 1117 -837 104 -38 345 -108 370 -108 6 0 38 42 70 92 33 51 88
123 123 160 70 74 72 68 -33 88 -471 91 -880 282 -1146 535 -72 68 -169 176
-169 187 0 4 308 8 685 8 l685 0 0 160 0 160 -836 0 c-740 0 -835 2 -830 15 5
14 47 232 61 318 l6 37 689 0 690 0 0 155 0 155 -685 0 -685 0 0 180 0 180
615 0 615 0 0 575 0 575 -1390 0 -1390 0 0 -575z m1168 -2 l-3 -278 -412 -3
-413 -2 0 280 0 280 415 0 415 0 -2 -277z m1242 -3 l0 -280 -430 0 -430 0 0
280 0 280 430 0 430 0 0 -280z"/>
<path d="M2474 5648 c-26 -35 -76 -100 -111 -145 l-64 -82 133 -65 c248 -121
555 -309 707 -434 l74 -60 114 161 114 162 -33 28 c-51 44 -270 188 -392 257
-109 63 -432 223 -473 234 -17 6 -29 -4 -69 -56z"/>
<path d="M8389 5146 c-2 -3 -1 -44 3 -93 3 -48 7 -141 7 -205 l1 -118 100 0
100 0 0 -585 0 -585 -209 0 -209 0 -33 -82 c-18 -46 -59 -139 -91 -207 -32
-68 -58 -126 -58 -128 0 -1 135 -3 300 -3 l300 0 0 -165 0 -165 -385 0 -385 0
0 -385 0 -385 -190 0 -190 0 0 159 0 160 -124 -122 c-68 -67 -162 -153 -210
-192 l-86 -70 0 -177 0 -178 398 -2 397 -3 3 -393 2 -392 208 2 207 3 3 778 2
777 385 0 385 0 0 1380 0 1380 -313 0 c-173 0 -316 -2 -318 -4z"/>
<path d="M3276 4253 c-172 -400 -502 -1058 -727 -1449 -55 -95 -99 -174 -99
-177 0 -3 28 -25 63 -50 34 -24 110 -78 169 -120 l108 -77 40 73 c61 110 377
738 475 947 125 264 305 669 305 685 0 12 -262 219 -292 230 -9 4 -23 -18 -42
-62z"/>
<path d="M1570 3008 l0 -198 -395 0 -395 0 0 -1000 0 -1000 995 0 995 0 0 210
0 210 -785 0 -785 0 0 580 0 580 461 0 460 0 -23 28 c-231 282 -354 459 -478
694 l-50 93 0 -197z"/>
<path d="M1580 1830 l0 -210 762 0 762 0 -130 78 c-165 100 -254 160 -384 261
l-104 81 -453 0 -453 0 0 -210z"/>
<path d="M3920 1068 l0 -238 208 2 207 3 3 198 c1 121 -1 197 -7 197 -19 0
-297 50 -353 64 l-58 13 0 -239z"/>
</g>
</svg>
